<svg width="856" height="547" viewBox="0 0 856 547" fill="none" xmlns="http://www.w3.org/2000/svg">
<path d="M397.009 2.40541C476.327 13.7365 555.471 30.7001 628.086 65.8473C628.51 66.5464 628.948 67.296 629.407 68.0995C632.421 73.3739 641.361 80.2242 642.888 85.5673C645.136 93.4373 647.485 105.273 651.621 112.718C656.535 121.563 653.543 134.633 658.457 143.477C663.275 152.151 666.511 160.708 671.178 169.109C678.288 181.907 701.956 197.512 714.847 202.526C736.005 210.753 755.391 228.89 775.605 240.119C796.394 251.669 812.81 260.236 830.287 277.713C862.947 310.373 858.389 349.714 844.337 390.115C836.129 413.711 823.97 428.573 808.925 446.961L808.832 447.075C795.461 463.417 773.612 471.033 759.466 486.947C724.533 526.247 657.849 526.45 610.42 539.73C585.48 546.713 559.311 545.046 533.714 545.046C488.668 545.046 442.152 548.424 397.389 543.338C324.732 535.081 250.968 528.915 182.459 500.617C135.272 481.127 98.1635 454.417 62.8428 417.835C37.0144 391.084 8.80782 348.353 3.79406 310.75C-1.07405 274.239 -2.63727 230.731 7.59141 194.931C12.2967 178.462 26.6122 164.108 32.0843 148.603C38.1277 131.48 66.4296 119.645 79.1714 107.592C98.7727 89.0502 126.891 78.9198 150.941 67.34C179.525 53.5775 208.213 40.0517 237.141 27.8476C287.483 6.6096 342.168 -5.42902 397.009 2.40541Z" fill="#F0F5F5"/>
</svg>
