<svg width="592" height="1103" viewBox="0 0 592 1103" fill="none" xmlns="http://www.w3.org/2000/svg">
<path d="M211.64 57.3684C215.904 53.1046 220.631 49.0442 225.709 45.4725C227.673 31.9532 241.857 38.8785 249.645 28.8645C259.034 16.7931 270.844 1.03409 288.354 0.360595C304.297 -0.252564 330.295 -1.65387 339.38 11.9733C344.951 20.3306 341.609 36.3375 341.609 45.9903V99.831C341.609 160.389 364.908 219.387 386.417 275.312C415.528 350.999 451.012 423.906 505.125 484.927C532.829 516.168 562.602 550.786 579.259 589.442C596.801 630.153 591.409 677.682 589.112 720.818C585.812 782.777 575.163 836.772 547.588 892.31C525.646 936.502 503.355 980.069 465.712 1013.13C432.466 1042.33 404.466 1075.05 359.556 1086.44C316.577 1097.35 271.044 1103.72 226.537 1102.39C187.177 1101.22 147.761 1093.02 112.404 1075.53C99.5828 1069.19 88.3427 1061.82 76.7451 1053.48C60.7657 1041.99 51.0701 1027.88 38.5052 1013.13C-7.17391 959.506 -0.480229 882.389 1.55573 817.238C2.89343 774.432 13.3957 730.768 22.787 689.029C31.6389 649.688 47.1753 611.752 63.021 574.779C92.1176 506.887 128.357 437.957 128.357 362.583C128.357 302.257 131.971 237.43 150.644 179.712C164.441 137.066 178.96 90.0486 211.64 57.3684Z" fill="#F0F5F5"/>
</svg>
