<svg width="3394" height="2370" viewBox="0 0 3394 2370" fill="none" xmlns="http://www.w3.org/2000/svg">
<path d="M1107.16 0C1003.26 0 688.46 13.8788 603.62 124.352C544.464 140.666 488.17 182.308 460.392 233.846C424.821 299.842 373.188 456.876 312.257 491.076C297.365 499.434 259.568 626.703 240.834 653.468C210.474 696.844 218.695 729.835 198.51 771.69C136.336 900.614 80.852 1018.02 37.1483 1157.54C-51.1653 1439.46 24.7614 1820.99 193.219 2052.64C326.077 2235.34 561.551 2287.66 773.857 2326.76C1145.9 2395.28 1540.27 2361.84 1917.94 2361.84C2210.3 2361.84 2586.22 2330.43 2822.62 2127.99C2970.45 2001.41 3158.03 1914.69 3251.16 1731.76C3336.08 1564.93 3394 1449.06 3394 1262.77C3394 1130.29 3347.61 981.966 3288.19 865.229C3196.81 685.723 3092.95 419.609 2927.11 291.008C2698.94 114.071 2383.48 29.8207 2095.17 23.3846C1766.08 16.0381 1437.77 0 1107.16 0Z" fill="#F0F5F5"/>
</svg>
