<svg width="128" height="128" viewBox="0 0 128 128" fill="none" xmlns="http://www.w3.org/2000/svg">
<path d="M121.541 14.908C120.924 14.9038 120.315 15.037 119.756 15.298L102.568 23.322C100.72 21.9296 98.7784 20.6646 96.758 19.536C92.098 16.946 85.845 14.283 79.215 15.874C67.909 18.588 61.893 27.194 59.075 34.55C57.675 38.202 56.955 41.68 56.58 44.265C53.033 44.07 47.409 43.52 41.73 40.865C27.441 34.182 16.777 19.9 16.777 19.9C14.979 17.44 11.232 17.692 9.779 20.37C9.779 20.37 -2.633 44.35 15.525 72.107C19.731 78.537 24.635 83.48 28.508 87.052L4.94 96.525C1.666 97.841 1.424 102.384 4.54 104.04C4.54 104.04 15.87 110.083 30.89 112.302C45.91 114.521 65.332 112.834 80.372 97.218C95.424 81.589 102.472 68.252 105.694 58.648C108.201 51.173 108.262 46.691 108.2 44.608L124.876 21.486C126.85 18.752 124.912 14.93 121.54 14.907L121.541 14.908ZM83.732 23.777C86.529 23.975 89.863 25.199 92.725 26.79C96.54 28.912 99.265 31.288 99.265 31.288C99.8707 31.8187 100.618 32.1616 101.415 32.2751C102.212 32.3885 103.025 32.2676 103.755 31.927L108.818 29.564L100.744 40.761C100.129 41.6146 99.8606 42.6702 99.994 43.714C99.994 43.714 100.626 47.661 97.826 56.009C95.026 64.357 88.711 76.596 74.394 91.46C61.596 104.749 45.571 106.08 32.104 104.091C26.408 103.25 21.536 101.803 17.534 100.409L37.793 92.267C40.732 91.085 41.316 87.18 38.853 85.189C38.853 85.189 28.37 76.582 22.471 67.564C11.833 51.304 12.915 37.787 14.861 30.398C19.625 35.686 27.589 43.413 38.215 48.382C48.673 53.273 60.432 52.804 60.432 52.804C61.5027 52.7765 62.5213 52.3362 63.2748 51.575C64.0283 50.8139 64.4583 49.7909 64.475 48.72C64.475 48.72 64.583 43.368 66.825 37.52C69.065 31.673 72.978 25.906 81.152 23.945C81.928 23.758 82.8 23.711 83.732 23.777Z" fill="#036364"/>
</svg>
